<?xml version="1.0" standalone="no"?>
<!DOCTYPE svg PUBLIC "-//W3C//DTD SVG 20010904//EN"
 "http://www.w3.org/TR/2001/REC-SVG-20010904/DTD/svg10.dtd">
<svg version="1.0" xmlns="http://www.w3.org/2000/svg"
 width="307.000000pt" height="206.000000pt" viewBox="0 0 307.000000 206.000000"
 preserveAspectRatio="xMidYMid meet">

<g transform="translate(0.000000,206.000000) scale(0.100000,-0.100000)"
fill="#cd7700" stroke="none">
<path d="M1408 1986 c-48 -17 -87 -43 -95 -62 -3 -9 0 -26 7 -39 12 -22 10
-28 -26 -68 -21 -24 -48 -55 -59 -70 -18 -24 -32 -29 -142 -47 -180 -28 -264
-34 -289 -18 -72 44 -92 51 -140 51 -28 0 -67 -6 -86 -12 -20 -7 -47 -9 -60
-6 -21 5 -23 3 -23 -26 0 -53 -29 -66 -220 -95 -93 -14 -176 -32 -183 -39 -10
-9 -15 -64 -19 -198 l-6 -186 68 -70 68 -71 -33 -71 c-30 -65 -32 -79 -34
-182 -1 -107 0 -114 30 -172 44 -83 63 -98 132 -103 108 -8 145 24 182 153 9
33 22 60 27 60 6 0 71 -55 144 -121 122 -110 256 -226 378 -327 65 -54 101
-71 226 -106 148 -42 244 -53 405 -45 214 9 363 54 507 152 60 41 141 121 162
161 18 33 41 113 35 123 -3 4 -2 24 2 44 4 23 9 31 14 23 12 -18 17 128 7 180
-15 72 -152 198 -139 127 2 -9 -4 -23 -13 -32 -8 -8 -15 -31 -15 -50 0 -51
-33 -79 -110 -92 -34 -6 -67 -9 -71 -6 -17 10 -9 58 17 102 16 27 21 43 13 40
-43 -14 -80 -161 -45 -174 24 -9 166 27 184 46 9 10 28 49 41 86 l24 68 24
-30 c34 -43 39 -71 17 -113 -35 -66 -153 -174 -259 -237 l-99 -59 -241 0 -240
1 -173 61 c-96 34 -192 73 -215 87 -23 13 -71 55 -107 93 -219 228 -322 331
-557 555 -145 138 -263 256 -263 263 0 11 48 22 177 41 77 12 118 -17 80 -55
-10 -10 -9 -14 6 -22 18 -11 24 -64 7 -74 -19 -12 -10 -22 16 -17 25 4 26 3
22 -22 -5 -23 -2 -26 22 -26 15 0 36 -10 50 -25 12 -13 27 -22 33 -18 5 3 26
0 46 -7 34 -11 42 -10 90 14 28 15 56 24 62 20 6 -3 16 1 22 10 10 14 36 -7
184 -151 95 -93 175 -178 178 -190 4 -16 -9 -38 -59 -95 -36 -41 -69 -86 -75
-99 -13 -35 10 -84 48 -104 28 -14 34 -14 61 0 28 14 31 14 50 -5 13 -13 20
-33 20 -60 0 -74 67 -103 138 -60 l32 20 0 85 c0 104 -17 151 -66 183 l-36 24
22 23 c20 21 21 26 8 51 -8 18 -37 42 -79 64 -36 21 -104 74 -155 121 -49 47
-119 112 -156 145 -74 66 -84 84 -68 115 11 19 16 144 8 194 -3 18 9 22 127
42 72 12 157 23 190 25 l60 3 0 -42 c0 -54 20 -74 79 -80 69 -8 96 13 96 75 0
27 6 56 13 65 11 16 18 13 77 -36 100 -83 358 -326 403 -379 l40 -48 -18 -56
c-59 -188 126 -327 293 -220 20 13 45 33 54 45 10 12 28 21 39 21 21 0 21 1 4
20 -16 17 -16 23 -2 63 12 37 12 46 1 62 -8 10 -14 36 -14 57 0 33 -3 38 -23
38 -31 0 -67 27 -61 45 7 18 -5 19 -29 1 -24 -19 -79 -6 -92 21 -11 21 -11 21
-22 -6 -6 -18 -22 -32 -42 -39 -29 -10 -35 -8 -68 21 -20 17 -86 88 -147 157
-184 207 -175 195 -170 232 4 28 -5 48 -60 131 -36 54 -69 109 -72 123 -5 19
-42 47 -57 44 -1 -1 -19 -7 -39 -14z m52 -34 c0 -13 -96 -55 -111 -50 -26 9
41 58 77 58 19 0 34 -4 34 -8z m89 -147 c60 -89 70 -115 30 -79 -30 27 -119
163 -119 182 0 14 2 14 14 2 8 -8 42 -55 75 -105z m-113 68 c20 -27 16 -38 -6
-18 -20 18 -26 35 -14 35 4 0 13 -8 20 -17z m-10 -58 l25 -25 -41 -51 c-22
-28 -41 -63 -41 -77 -1 -15 -2 -36 -3 -47 -1 -26 -47 -42 -83 -29 -25 8 -28
15 -31 57 -3 53 29 138 67 176 29 29 76 27 107 -4z m-673 -122 c43 -21 80 -86
85 -149 5 -63 -8 -87 -44 -78 -13 3 -24 2 -24 -4 0 -5 9 -12 21 -15 15 -4 20
-12 17 -29 -2 -18 -9 -23 -30 -21 -20 1 -28 -3 -30 -20 -4 -27 -71 -46 -100
-28 -11 7 -18 7 -18 1 0 -5 -9 -10 -20 -10 -13 0 -20 7 -20 19 0 26 -27 48
-42 33 -16 -16 -28 -15 -28 3 0 8 -7 15 -15 15 -33 0 -7 55 30 64 14 4 25 11
25 17 0 16 -62 2 -73 -16 -16 -30 -27 -14 -25 36 2 32 8 53 16 56 7 3 11 12 8
20 -4 8 14 34 44 64 68 68 144 82 223 42z m960 -162 c53 -60 97 -112 97 -116
0 -3 -28 18 -62 46 -182 151 -206 179 -155 179 17 0 50 -30 120 -109z m-1489
-120 l99 -99 -7 -55 c-6 -52 -5 -56 16 -59 34 -5 30 -34 -4 -30 -28 3 -27 5
-48 -75 -7 -30 -16 -43 -28 -43 -9 0 -47 29 -84 63 l-68 63 0 167 c0 128 3
167 13 167 7 0 57 -45 111 -99z m1915 -138 c7 -14 12 -15 24 -5 23 20 87 -11
87 -42 0 -13 7 -26 15 -30 25 -9 17 -32 -22 -65 -36 -30 -37 -31 -9 -21 38 14
57 -2 33 -28 -9 -10 -17 -26 -17 -34 0 -23 -64 -75 -107 -87 -95 -27 -164 -4
-194 64 -44 98 -30 173 36 200 19 9 35 21 35 29 0 16 24 28 44 20 8 -3 17 -1
21 5 10 17 43 13 54 -6z m-1674 -82 c117 -101 127 -115 119 -166 -4 -31 -2
-44 10 -54 25 -21 19 -34 -11 -26 -26 6 -197 128 -222 159 -8 10 -7 22 5 51
17 41 13 65 -11 65 -16 0 -19 17 -9 44 8 20 15 16 119 -73z m-118 -106 l28
-24 -37 -1 c-34 0 -38 3 -38 25 0 31 11 32 47 0z m486 -253 l207 -208 0 -66
c0 -80 6 -97 36 -108 28 -11 23 -54 -6 -45 -20 6 -30 -18 -30 -77 0 -21 -3
-38 -7 -38 -10 1 -40 28 -267 239 -98 90 -184 173 -192 185 -11 17 -13 41 -8
99 7 73 8 76 29 71 20 -5 23 -1 29 42 9 69 8 84 -9 84 -8 0 -15 4 -15 8 0 10
11 22 19 22 4 0 100 -94 214 -208z m-487 172 c54 -26 101 -88 114 -150 15 -72
5 -219 -18 -263 -33 -63 -119 -89 -182 -56 -17 9 -30 18 -30 21 0 3 12 15 26
27 21 19 28 38 41 124 20 133 12 205 -28 245 -34 35 -33 32 -13 52 20 20 47
20 90 0z m931 -30 c3 -8 3 -18 -1 -21 -9 -9 -86 18 -80 29 3 4 9 6 14 3 4 -3
11 2 14 10 5 13 10 14 26 5 12 -6 24 -18 27 -26z m-817 15 c0 -5 4 -8 8 -5 5
3 25 -9 45 -25 37 -30 37 -31 37 -110 0 -80 -6 -91 -39 -70 -7 5 -26 53 -42
107 -32 112 -33 114 -19 114 6 0 10 -5 10 -11z m728 -31 c7 -7 12 -17 12 -23
0 -8 -102 -139 -140 -179 -4 -4 -13 1 -19 12 -9 17 -7 27 6 50 23 37 116 152
124 152 3 0 10 -5 17 -12z m-910 -47 c20 -49 20 -140 -2 -234 -26 -116 -61
-116 -91 -2 -27 105 -16 241 22 271 23 19 54 4 71 -35z m948 -32 c3 -6 1 -16
-4 -21 -13 -13 -45 8 -36 23 7 12 31 11 40 -2z m81 -27 c23 -15 43 -82 43
-146 0 -74 -6 -96 -27 -96 -17 0 -143 124 -143 140 0 5 14 32 31 60 25 40 36
50 57 50 15 0 32 -4 39 -8z m1046 -99 c-4 -10 -19 -36 -35 -57 -34 -48 -37
-68 -4 -29 13 15 28 25 32 21 12 -12 -16 -211 -34 -242 -26 -44 -42 -44 -43 1
-1 37 -2 37 -10 -11 -15 -94 -46 -79 -52 24 -3 57 -4 55 -3 -13 1 -65 4 -80
20 -89 16 -9 15 -12 -16 -39 -40 -34 -64 -39 -48 -10 5 11 10 23 10 28 -1 4
-8 -4 -16 -19 -17 -32 -31 -36 -37 -10 -2 9 -3 2 -1 -16 2 -29 -1 -34 -36 -52
-48 -24 -50 -24 -50 -2 0 13 -2 14 -9 3 -5 -7 -14 -10 -20 -6 -8 4 -10 -1 -6
-17 6 -22 1 -25 -62 -46 -68 -21 -241 -42 -360 -42 -52 0 -63 3 -63 16 0 13
-3 14 -14 5 -20 -16 -25 -5 -41 87 l-14 77 6 -65 c3 -36 9 -75 14 -88 8 -20 5
-22 -20 -22 -56 0 -91 12 -91 30 0 10 -5 20 -11 22 -7 2 -15 33 -20 68 -7 60
-8 59 -3 -19 4 -65 2 -82 -8 -79 -7 3 -52 17 -100 32 -48 14 -101 38 -117 52
-26 22 -31 33 -31 71 0 40 2 44 15 33 25 -21 37 1 38 76 l2 69 -27 -2 c-27 -2
-28 0 -28 53 0 63 6 65 75 32 48 -23 53 -36 31 -71 -8 -13 -16 -64 -19 -127
l-5 -105 13 98 c15 102 29 145 39 117 3 -8 7 -67 8 -130 3 -97 6 -115 19 -118
10 -2 19 6 22 18 4 16 3 19 -8 10 -18 -15 -25 29 -25 162 l0 110 25 -6 c55
-14 77 -26 71 -41 -3 -8 -1 -17 4 -20 6 -4 10 1 10 9 0 20 2 20 102 -4 46 -12
132 -23 191 -27 94 -5 108 -8 104 -22 -2 -9 2 -22 10 -29 11 -11 13 -8 13 11
0 20 6 25 38 31 85 14 107 9 147 -35 25 -28 35 -47 31 -60 -10 -32 -17 -65
-10 -51 3 6 12 12 20 12 8 0 14 4 14 8 0 5 11 14 24 20 19 8 26 8 30 -1 2 -7
5 2 5 20 1 36 38 106 52 97 5 -3 10 -22 10 -42 1 -20 3 -29 6 -18 9 33 -7 106
-23 106 -25 0 -15 14 34 47 36 26 48 30 50 18 6 -25 32 -17 32 10 0 16 23 50
70 102 39 43 70 81 70 85 0 5 4 8 10 8 5 0 6 -8 3 -17z m-1249 1 c25 -9 19
-24 -9 -24 -24 0 -32 10 -18 23 8 8 8 8 27 1z"/>
<path d="M527 1623 c-9 -14 4 -62 21 -75 14 -12 15 -8 9 26 -6 41 -21 64 -30
49z"/>
<path d="M706 1514 c-10 -25 1 -29 14 -5 6 12 7 21 1 21 -5 0 -12 -7 -15 -16z"/>
<path d="M610 1461 c0 -19 22 -23 38 -7 15 15 14 16 -11 16 -15 0 -27 -4 -27
-9z"/>
<path d="M642 1404 c4 -20 40 -35 56 -25 8 5 -1 14 -24 24 -33 16 -35 16 -32
1z"/>
<path d="M2146 1181 c5 -5 33 -11 62 -13 43 -4 50 -3 41 8 -7 9 -32 14 -62 14
-30 0 -47 -4 -41 -9z"/>
<path d="M2273 525 c0 -22 2 -30 4 -17 2 12 2 30 0 40 -3 9 -5 -1 -4 -23z"/>
<path d="M1425 430 c-3 -5 -2 -10 4 -10 5 0 12 -10 14 -22 4 -20 4 -20 6 4 1
28 -13 45 -24 28z"/>
<path d="M2173 405 c0 -22 2 -30 4 -17 2 12 2 30 0 40 -3 9 -5 -1 -4 -23z"/>
<path d="M1584 398 l-19 -23 22 18 c12 11 27 16 34 11 8 -4 10 -3 5 4 -10 17
-21 15 -42 -10z"/>
<path d="M1840 405 c-6 -8 -10 -22 -7 -32 4 -14 5 -13 6 5 0 12 5 22 11 22 5
0 11 -37 13 -82 l3 -83 2 87 c2 87 -6 110 -28 83z"/>
<path d="M1261 384 c0 -11 3 -14 6 -6 3 7 2 16 -1 19 -3 4 -6 -2 -5 -13z"/>
<path d="M1693 335 c0 -22 2 -30 4 -17 2 12 2 30 0 40 -3 9 -5 -1 -4 -23z"/>
<path d="M1535 295 c-22 -74 -14 -82 9 -9 10 31 15 58 12 61 -2 3 -12 -20 -21
-52z"/>
<path d="M1822 315 c0 -16 2 -22 5 -12 2 9 2 23 0 30 -3 6 -5 -1 -5 -18z"/>
<path d="M2031 274 c0 -11 3 -14 6 -6 3 7 2 16 -1 19 -3 4 -6 -2 -5 -13z"/>
<path d="M1931 256 c0 -11 -8 -28 -17 -38 -16 -17 -18 -17 -31 0 -13 16 -14
16 -11 -3 2 -11 11 -21 20 -23 21 -4 51 40 45 65 -4 16 -5 16 -6 -1z"/>
<path d="M1741 242 c-2 -33 16 -61 36 -57 10 2 21 4 26 4 4 1 7 5 7 9 0 4 -12
8 -27 7 -23 0 -29 5 -34 30 -5 24 -7 26 -8 7z"/>
<path d="M1811 244 c0 -11 3 -14 6 -6 3 7 2 16 -1 19 -3 4 -6 -2 -5 -13z"/>
<path d="M1681 234 c0 -11 3 -14 6 -6 3 7 2 16 -1 19 -3 4 -6 -2 -5 -13z"/>
<path d="M1621 207 c-2 -41 37 -75 54 -47 4 6 3 10 -2 9 -22 -4 -32 3 -41 29
-7 18 -11 21 -11 9z"/>
<path d="M2691 1615 c-32 -37 -32 -60 -1 -70 30 -10 90 -84 121 -149 39 -84
62 -231 57 -376 l-3 -115 43 -3 c41 -3 43 -2 60 35 13 30 17 67 17 178 0 162
-17 240 -73 349 -42 81 -138 186 -169 186 -11 0 -35 -16 -52 -35z m93 -6 c14
-11 46 -48 70 -82 82 -115 105 -194 112 -382 7 -171 -4 -218 -51 -223 l-30 -3
3 109 c4 116 -10 215 -47 338 -17 58 -32 81 -87 142 l-67 73 23 24 c29 30 40
31 74 4z"/>
<path d="M2566 1455 c-24 -36 -20 -49 22 -79 47 -32 73 -77 109 -187 21 -67
27 -102 26 -171 -1 -85 0 -87 25 -93 16 -4 28 -1 33 7 13 21 10 138 -6 229
-26 149 -40 183 -107 254 -33 36 -66 65 -73 65 -7 0 -20 -11 -29 -25z m86 -52
c25 -27 53 -63 62 -80 27 -54 58 -203 59 -288 2 -68 0 -80 -15 -83 -16 -3 -18
6 -18 78 0 123 -56 277 -127 352 -23 23 -33 42 -30 52 10 24 19 20 69 -31z"/>
<path d="M2478 1309 c-16 -11 -28 -25 -28 -31 0 -5 18 -30 39 -54 54 -62 71
-102 79 -192 l7 -77 40 0 40 0 0 100 c-1 91 -4 105 -30 153 -26 49 -95 122
-113 122 -4 0 -19 -10 -34 -21z m69 -33 c61 -51 114 -202 97 -273 -16 -63 -49
-46 -59 30 -11 89 -34 154 -70 202 -49 64 -28 91 32 41z"/>
<path d="M2381 1118 c-36 -49 -37 -53 -12 -94 20 -33 67 -50 89 -32 21 18 15
111 -9 142 -11 14 -24 26 -29 26 -4 0 -22 -19 -39 -42z m69 -55 c0 -31 -5 -45
-16 -50 -46 -17 -72 59 -34 97 30 30 50 11 50 -47z"/>
<path d="M1414 758 c4 -73 9 -141 12 -150 19 -65 274 2 267 70 -7 63 -31 91
-105 127 -40 19 -84 43 -98 54 -14 10 -38 22 -54 26 l-29 6 7 -133z m70 78
c17 -13 59 -37 93 -55 60 -30 93 -67 93 -104 0 -26 -37 -47 -106 -62 -103 -22
-107 -21 -101 18 2 17 -2 61 -9 97 -15 70 -18 130 -7 130 3 0 20 -11 37 -24z"/>
</g>
</svg>
